<svg width="current" height="current" viewBox="0 0 27 27" fill="none" xmlns="http://www.w3.org/2000/svg">
<path d="M22.9688 12.5782C22.9725 14.0218 22.6352 15.4458 21.9844 16.7344C21.2127 18.2785 20.0263 19.5773 18.5581 20.4852C17.09 21.3931 15.3981 21.8744 13.6719 21.875C12.2283 21.8788 10.8042 21.5415 9.51562 20.8907L3.28125 22.9688L5.35938 16.7344C4.70852 15.4458 4.37124 14.0218 4.375 12.5782C4.37567 10.852 4.85692 9.16002 5.76485 7.69188C6.67278 6.22374 7.97153 5.03737 9.51562 4.26566C10.8042 3.6148 12.2283 3.27752 13.6719 3.28128H14.2188C16.4985 3.40705 18.6518 4.3693 20.2662 5.98378C21.8807 7.59826 22.843 9.75153 22.9688 12.0313V12.5782Z" stroke="current" stroke-width="2" stroke-linecap="round" stroke-linejoin="round"/>
</svg>
