<svg width="current" height="current" viewBox="0 0 48 48" fill="none" xmlns="http://www.w3.org/2000/svg">
<g filter="url(#filter0_d_548_2612)">
<path d="M33.0744 37.008L33.0744 37.0081L33.0806 37.0044C35.4466 35.5975 37.1264 33.0006 38.252 30.924L38.2527 30.9227C39.527 28.5663 40.4005 25.868 40.4995 23.0672C40.5002 23.0496 40.5005 23.0319 40.5005 23.0142V23.0126V23.011V23.0093V23.0077V23.006V23.0044V23.0028V23.0011V22.9995V22.9979V22.9962V22.9946V22.993V22.9913V22.9897V22.988V22.9864V22.9848V22.9831V22.9815V22.9799V22.9782V22.9766V22.975V22.9733V22.9717V22.97V22.9684V22.9668V22.9651V22.9635V22.9619V22.9602V22.9586V22.957V22.9553V22.9537V22.952V22.9504V22.9488V22.9471V22.9455V22.9439V22.9422V22.9406V22.939V22.9373V22.9357V22.9341V22.9324V22.9308V22.9291V22.9275V22.9259V22.9242V22.9226V22.921V22.9193V22.9177V22.9161V22.9144V22.9128V22.9112V22.9095V22.9079V22.9062V22.9046V22.903V22.9013V22.8997V22.8981V22.8964V22.8948V22.8932V22.8915V22.8899V22.8883V22.8866V22.885V22.8834V22.8817V22.8801V22.8785V22.8768V22.8752V22.8736V22.8719V22.8703V22.8687V22.867V22.8654V22.8638V22.8621V22.8605V22.8588V22.8572V22.8556V22.8539V22.8523V22.8507V22.849V22.8474V22.8458V22.8441V22.8425V22.8409V22.8392V22.8376V22.836V22.8343V22.8327V22.8311V22.8295V22.8278V22.8262V22.8246V22.8229V22.8213V22.8197V22.818V22.8164V22.8148V22.8131V22.8115V22.8099V22.8082V22.8066V22.805V22.8033V22.8017V22.8001V22.7984V22.7968V22.7952V22.7935V22.7919V22.7903V22.7887V22.787V22.7854V22.7838V22.7821V22.7805V22.7789V22.7772V22.7756V22.774V22.7724V22.7707V22.7691V22.7675V22.7658V22.7642V22.7626V22.7609V22.7593V22.7577V22.7561V22.7544V22.7528V22.7512V22.7495V22.7479V22.7463V22.7447V22.743V22.7414V22.7398V22.7381V22.7365V22.7349V22.7333V22.7316V22.73V22.7284V22.7268V22.7251V22.7235V22.7219V22.7202V22.7186V22.717V22.7154V22.7137V22.7121V22.7105V22.7089V22.7072V22.7056V22.704V22.7024V22.7007V22.6991V22.6975V22.6959V22.6942V22.6926V22.691V22.6894V22.6877V22.6861V22.6845V22.6829V22.6812V22.6796V22.678V22.6764V22.6747V22.6731V22.6715V22.6699V22.6682V22.6666V22.665V22.6634V22.6618V22.6601V22.6585V22.6569V22.6553V22.6536V22.652V22.6504V22.6488V22.6472V22.6455V22.6439V22.6423V22.6407V22.639V22.6374V22.6358V22.6342V22.6326V22.6309V22.6293V22.6277V22.6261V22.6245V22.6228V22.6212V22.6196V22.618V22.6164V22.6148V22.6131V22.6115V22.6099V22.6083V22.6067V22.605V22.6034V22.6018V22.6002V22.5986V22.597V22.5953V22.5937V22.5921V22.5905V22.5889V22.5873V22.5856V22.584V22.5824V22.5808V22.5792V22.5776V22.576V22.5743V22.5727V22.5711V22.5695V22.5679V22.5663V22.5647V22.563V22.5614V22.5598V22.5582V22.5566V22.555V22.5534V22.5517V22.5501V22.5485V22.5469V22.5453V22.5437V22.5421V22.5405V22.5389V22.5372V22.5356V22.534V22.5324V22.5308V22.5292V22.5276V22.526V22.5244V22.5227V22.5211V22.5195V22.5179V22.5163V22.5147V22.5131V22.5115V22.5099V22.5083V22.5067V22.5051V22.5035V22.5018V22.5002V22.4986V22.497V22.4954V22.4938V22.4922V22.4906V22.489V22.4874V22.4858V22.4842V22.4826V22.481V22.4794V22.4778V22.4762V22.4746V22.4729V22.4713V22.4697V22.4681V22.4665V22.4649V22.4633V22.4617V22.4601V22.4585V22.4569V22.4553V22.4537V22.4521V22.4505V22.4489V22.4473V22.4457V22.4441V22.4425V22.4409V22.4393V22.4377V22.4361V22.4345V22.4329V22.4313V22.4297V22.4281V22.4265V22.4249V22.4233V22.4217V22.4201V22.4186V22.417V22.4154V22.4138V22.4122V22.4106V22.409V22.4074V22.4058V22.4042V22.4026V22.401V22.3994V22.3978V22.3962V22.3946V22.393V22.3914V22.3899V22.3883V22.3867V22.3851V22.3835V22.3819V22.3803V22.3787V22.3771V22.3755V22.3739V22.3723V22.3708V22.3692V22.3676V22.366V22.3644V22.3628V22.3612V22.3596V22.358V22.3565V22.3549V22.3533V22.3517V22.3501V22.3485V22.3469V22.3454V22.3438V22.3422V22.3406V22.339V22.3374V22.3358V22.3343V22.3327V22.3311V22.3295V22.3279V22.3263V22.3248V22.3232V22.3216V22.32V22.3184V22.3169V22.3153V22.3137V22.3121V22.3105V22.309V22.3074V22.3058V22.3042V22.3026V22.3011V22.2995V22.2979V22.2963V22.2947V22.2932V22.2916V22.29V22.2884V22.2869V22.2853V22.2837V22.2821V22.2806V22.279V22.2774V22.2758V22.2743V22.2727V22.2711V22.2695V22.268V22.2664V22.2648V22.2632V22.2617V22.2601V22.2585V22.257V22.2554V22.2538V22.2522V22.2507V22.2491V22.2475V22.246V22.2444V22.2428V22.2413V22.2397V22.2381V22.2366V22.235V22.2334V22.2319V22.2303V22.2287V22.2272V22.2256V22.224V22.2225V22.2209V22.2193V22.2178V22.2162V22.2146V22.2131V22.2115V22.21V22.2084V22.2068V22.2053V22.2037V22.2021V22.2006V22.199V22.1975V22.1959V22.1943V22.1928V22.1912V22.1897C40.5005 22.1766 40.5003 22.1635 40.5 22.1505C40.2726 13.4566 32.7383 7.03976 24.455 7.52592L24.453 7.52604C19.4544 7.82619 16.3398 9.63295 14.498 12.0029C12.7001 14.3163 12.28 16.9562 12.223 18.6652C12.2172 18.8174 12.21 18.9277 12.201 19.0111C12.1289 19.0201 12.0297 19.0273 11.8973 19.0273H9.58765C9.58452 19.0273 9.5802 19.0272 9.57477 19.0272C9.51475 19.0267 9.3205 19.0253 9.13552 19.0558C8.85386 19.1023 8.43378 19.2416 8.10342 19.6449C7.84596 19.9593 7.76548 20.2982 7.73856 20.4119C7.70783 20.5418 7.68323 20.6925 7.66495 20.8044C7.6643 20.8084 7.66365 20.8124 7.66302 20.8163C7.19561 23.3883 8.74096 25.7509 9.93618 27.2379C11.2229 28.8436 12.9745 30.0172 14.9175 30.5837C15.8183 30.8535 16.7407 30.9777 17.665 30.9777H22.6671C22.7357 30.9777 22.776 30.9836 22.7974 30.9889C22.8058 31.0018 22.8191 31.0251 22.8348 31.0628C22.8635 31.1318 22.8942 31.2343 22.9176 31.377C23.0213 32.007 22.9089 32.8837 22.7571 33.5922L22.7571 33.5922L22.7554 33.6005C22.4344 35.1414 21.2912 36.4583 19.8574 37.9664C19.2875 38.5659 19.3103 39.5135 19.9084 40.0847C20.3114 40.4696 20.8731 40.5858 21.3718 40.4381C21.4038 40.4381 21.4433 40.4385 21.491 40.4397C21.5848 40.442 21.6784 40.4462 21.7774 40.4506C21.8007 40.4516 21.8244 40.4527 21.8484 40.4537C21.9063 40.4562 21.9712 40.4589 22.0309 40.4603C22.0612 40.461 22.096 40.4616 22.1322 40.4614C22.1654 40.4613 22.2161 40.4605 22.2734 40.4565L22.2893 40.4553C22.8131 40.4133 23.3388 40.3572 23.8535 40.2866L23.8535 40.2866L23.8631 40.2852C24.2593 40.2283 24.6511 40.1579 25.0135 40.0928L25.0251 40.0907C25.1259 40.0726 25.2228 40.0446 25.315 40.008C25.8992 39.8909 26.4807 39.7502 27.0662 39.5762C29.1643 38.9827 31.1807 38.1218 33.0744 37.008ZM22.8179 30.9968C22.8173 30.9973 22.8124 30.9958 22.8054 30.9911C22.8151 30.994 22.8186 30.9964 22.8179 30.9968ZM21.2754 40.4405C21.2759 40.4405 21.2763 40.4404 21.2768 40.4404L21.2754 40.4405Z" fill="#A1A5FF" fill-opacity="0.8" stroke="white" stroke-width="3" stroke-linecap="round" stroke-linejoin="round"/>
<path d="M30.3544 17.6186C30.562 20.2861 30.4582 23.4846 32.9384 24.9331C33.9766 25.5848 35.3839 25.7176 36.3875 25.1865C37.368 24.6675 37.7487 23.1225 37.8294 22.0362C37.8294 21.7103 38.0948 21.4569 38.4062 21.4569C39.5252 21.6259 38.7292 23.714 38.4985 24.3658C37.668 26.9488 34.2765 27.1177 32.4423 25.778C31.1504 24.921 30.3198 23.4846 30.0199 22C29.7545 20.5033 29.9737 19.0911 30.0429 17.6065C30.066 17.4134 30.3429 17.4134 30.3659 17.6065L30.3544 17.6186Z" fill="black"/>
<path d="M24.7586 29.1849C26.5833 28.879 27.9614 26.924 29.2885 25.5542C29.3778 25.4611 29.5182 25.4611 29.5948 25.5542C29.6586 25.6207 29.6713 25.7271 29.6458 25.8069C29.212 26.8442 28.7143 27.8417 28.0125 28.7859C27.5276 29.5839 24.6692 32.0842 24.0567 30.1425C23.9929 29.677 24.2992 29.2514 24.7458 29.1849H24.7586Z" fill="black"/>
<path d="M17.1022 16.9895H16.9619C16.4897 16.9895 16.1069 17.3884 16.1069 17.8806V19.1706C16.1069 19.6627 16.4897 20.0616 16.9619 20.0616H17.1022C17.5744 20.0616 17.9572 19.6627 17.9572 19.1706V17.8806C17.9572 17.3884 17.5744 16.9895 17.1022 16.9895Z" fill="black"/>
<path d="M9.10016 20.4001H14.2977C14.2977 20.4001 14.1298 25.488 10.8759 25.488C10.0303 25.488 9.33258 24.3063 9.09962 23.0121C8.8748 21.7632 9.10016 20.4001 9.10016 20.4001Z" fill="black"/>
</g>
<defs>
<filter id="filter0_d_548_2612" x="0.0771484" y="0.00012207" width="47.9233" height="47.9999" filterUnits="userSpaceOnUse" color-interpolation-filters="sRGB">
<feFlood flood-opacity="0" result="BackgroundImageFix"/>
<feColorMatrix in="SourceAlpha" type="matrix" values="0 0 0 0 0 0 0 0 0 0 0 0 0 0 0 0 0 0 127 0" result="hardAlpha"/>
<feOffset/>
<feGaussianBlur stdDeviation="3"/>
<feComposite in2="hardAlpha" operator="out"/>
<feColorMatrix type="matrix" values="0 0 0 0 0.00392157 0 0 0 0 0.168627 0 0 0 0 0.505882 0 0 0 0.14 0"/>
<feBlend mode="normal" in2="BackgroundImageFix" result="effect1_dropShadow_548_2612"/>
<feBlend mode="normal" in="SourceGraphic" in2="effect1_dropShadow_548_2612" result="shape"/>
</filter>
</defs>
</svg>
