<svg width="current" height="current" viewBox="0 0 30 30" fill="none" xmlns="http://www.w3.org/2000/svg">
<path fill-rule="evenodd" clip-rule="evenodd" d="M22.9554 10.0625C22.7225 10.2934 22.4083 10.4236 22.0804 10.425C21.7699 10.4109 21.4757 10.2817 21.2554 10.0625C21.0226 9.8283 20.8919 9.51148 20.8919 9.18125C20.8919 8.85102 21.0226 8.5342 21.2554 8.3L22.0804 7.4125C22.1924 7.28165 22.3303 7.17537 22.4854 7.10034C22.6405 7.02531 22.8094 6.98315 22.9816 6.9765C23.1537 6.96985 23.3254 6.99886 23.4858 7.0617C23.6462 7.12455 23.7919 7.21987 23.9137 7.34169C24.0355 7.46351 24.1308 7.60919 24.1937 7.7696C24.2565 7.93 24.2855 8.10167 24.2789 8.27382C24.2722 8.44597 24.2301 8.61488 24.155 8.76996C24.08 8.92504 23.9737 9.06294 23.8429 9.175L22.9554 10.0625ZM15.8893 7.13388C15.6548 7.3683 15.3369 7.5 15.0054 7.5C14.6739 7.5 14.3559 7.3683 14.1215 7.13388C13.8871 6.89946 13.7554 6.58152 13.7554 6.25V5C13.7554 4.66848 13.8871 4.35054 14.1215 4.11612C14.3559 3.8817 14.6739 3.75 15.0054 3.75C15.3369 3.75 15.6548 3.8817 15.8893 4.11612C16.1237 4.35054 16.2554 4.66848 16.2554 5V6.25C16.2554 6.58152 16.1237 6.89946 15.8893 7.13388ZM3.75537 15H5.00537C5.33689 15 5.65483 15.1317 5.88925 15.3661C6.12367 15.6005 6.25537 15.9185 6.25537 16.25C6.25537 16.5815 6.12367 16.8995 5.88925 17.1339C5.65483 17.3683 5.33689 17.5 5.00537 17.5H3.75537C3.42385 17.5 3.10591 17.3683 2.87149 17.1339C2.63707 16.8995 2.50537 16.5815 2.50537 16.25C2.50537 15.9185 2.63707 15.6005 2.87149 15.3661C3.10591 15.1317 3.42385 15 3.75537 15ZM7.93037 10.425C7.60245 10.4236 7.2882 10.2934 7.05537 10.0625L6.16787 9.175C5.96309 8.93587 5.85608 8.62828 5.86823 8.31368C5.88038 7.99909 6.0108 7.70066 6.23342 7.47805C6.45604 7.25543 6.75446 7.12501 7.06905 7.11286C7.38365 7.10071 7.69124 7.20772 7.93037 7.4125L8.81787 8.3C9.05068 8.5342 9.18136 8.85102 9.18136 9.18125C9.18136 9.51148 9.05068 9.8283 8.81787 10.0625C8.70107 10.1784 8.56255 10.27 8.41025 10.3322C8.25796 10.3944 8.09488 10.426 7.93037 10.425ZM25.0054 15H26.2554C26.5869 15 26.9048 15.1317 27.1393 15.3661C27.3737 15.6005 27.5054 15.9185 27.5054 16.25C27.5054 16.5815 27.3737 16.8995 27.1393 17.1339C26.9048 17.3683 26.5869 17.5 26.2554 17.5H25.0054C24.6739 17.5 24.3559 17.3683 24.1215 17.1339C23.8871 16.8995 23.7554 16.5815 23.7554 16.25C23.7554 15.9185 23.8871 15.6005 24.1215 15.3661C24.3559 15.1317 24.6739 15 25.0054 15ZM10.0054 23.75H13.7554C14.0869 23.75 14.4048 23.8817 14.6393 24.1161C14.8737 24.3505 15.0054 24.6685 15.0054 25C15.0054 25.3315 14.8737 25.6495 14.6393 25.8839C14.4048 26.1183 14.0869 26.25 13.7554 26.25H10.0054C9.67385 26.25 9.35591 26.1183 9.12149 25.8839C8.88707 25.6495 8.75537 25.3315 8.75537 25C8.75537 24.6685 8.88707 24.3505 9.12149 24.1161C9.35591 23.8817 9.67385 23.75 10.0054 23.75ZM21.4054 18.75H22.5054C22.8369 18.75 23.1548 18.8817 23.3893 19.1161C23.6237 19.3505 23.7554 19.6685 23.7554 20C23.7554 20.3315 23.6237 20.6495 23.3893 20.8839C23.1548 21.1183 22.8369 21.25 22.5054 21.25H7.50537C7.17385 21.25 6.85591 21.1183 6.62149 20.8839C6.38707 20.6495 6.25537 20.3315 6.25537 20C6.25537 19.6685 6.38707 19.3505 6.62149 19.1161C6.85591 18.8817 7.17385 18.75 7.50537 18.75H8.60537C8.28967 17.9544 8.12847 17.1059 8.13037 16.25C8.13037 14.4266 8.8547 12.678 10.144 11.3886C11.4333 10.0993 13.182 9.375 15.0054 9.375C16.8287 9.375 18.5774 10.0993 19.8667 11.3886C21.156 12.678 21.8804 14.4266 21.8804 16.25C21.8823 17.1059 21.7211 17.9544 21.4054 18.75ZM17.8715 24.1161C18.1059 23.8817 18.4239 23.75 18.7554 23.75H20.0054C20.3369 23.75 20.6548 23.8817 20.8893 24.1161C21.1237 24.3505 21.2554 24.6685 21.2554 25C21.2554 25.3315 21.1237 25.6495 20.8893 25.8839C20.6548 26.1183 20.3369 26.25 20.0054 26.25H18.7554C18.4239 26.25 18.1059 26.1183 17.8715 25.8839C17.6371 25.6495 17.5054 25.3315 17.5054 25C17.5054 24.6685 17.6371 24.3505 17.8715 24.1161Z" fill="current"/>
</svg>
